<mxfile host="app.diagrams.net" modified="2021-09-01T08:46:15.425Z" agent="5.0 (Macintosh; Intel Mac OS X 10_14_6) AppleWebKit/537.36 (KHTML, like Gecko) Chrome/92.0.4515.159 Safari/537.36" etag="oBIc3lT-ZL6ZfWcUlCXl" version="14.9.9" type="github">
  <diagram id="JrnqUwHhGGC6w4v_QgO1" name="Page-1">
    <mxGraphModel dx="1654" dy="844" grid="1" gridSize="10" guides="1" tooltips="1" connect="1" arrows="1" fold="1" page="1" pageScale="1" pageWidth="827" pageHeight="1169" math="0" shadow="0">
      <root>
        <mxCell id="0" />
        <mxCell id="1" parent="0" />
        <mxCell id="oeIwhElIJajcfcrf5PPU-1" value="AWS Cloud" style="points=[[0,0],[0.25,0],[0.5,0],[0.75,0],[1,0],[1,0.25],[1,0.5],[1,0.75],[1,1],[0.75,1],[0.5,1],[0.25,1],[0,1],[0,0.75],[0,0.5],[0,0.25]];outlineConnect=0;html=1;whiteSpace=wrap;fontSize=12;fontStyle=0;shape=mxgraph.aws4.group;grIcon=mxgraph.aws4.group_aws_cloud_alt;verticalAlign=top;align=left;spacingLeft=30;dashed=0;strokeWidth=2;" vertex="1" parent="1">
          <mxGeometry x="270" y="180" width="1040" height="870" as="geometry" />
        </mxCell>
        <mxCell id="oeIwhElIJajcfcrf5PPU-91" value="Region" style="points=[[0,0],[0.25,0],[0.5,0],[0.75,0],[1,0],[1,0.25],[1,0.5],[1,0.75],[1,1],[0.75,1],[0.5,1],[0.25,1],[0,1],[0,0.75],[0,0.5],[0,0.25]];outlineConnect=0;gradientColor=none;html=1;whiteSpace=wrap;fontSize=12;fontStyle=0;shape=mxgraph.aws4.group;grIcon=mxgraph.aws4.group_region;strokeColor=#147EBA;fillColor=none;verticalAlign=top;align=left;spacingLeft=30;fontColor=#147EBA;strokeWidth=2;dashed=1;" vertex="1" parent="1">
          <mxGeometry x="302.57" y="210" width="977.43" height="810" as="geometry" />
        </mxCell>
        <mxCell id="oeIwhElIJajcfcrf5PPU-107" style="edgeStyle=orthogonalEdgeStyle;rounded=1;orthogonalLoop=1;jettySize=auto;html=1;strokeColor=#001DBC;fillColor=#0050ef;" edge="1" parent="1" source="oeIwhElIJajcfcrf5PPU-88" target="oeIwhElIJajcfcrf5PPU-10">
          <mxGeometry relative="1" as="geometry">
            <Array as="points">
              <mxPoint x="1040" y="385" />
              <mxPoint x="1040" y="599" />
            </Array>
          </mxGeometry>
        </mxCell>
        <mxCell id="oeIwhElIJajcfcrf5PPU-88" value="MiddleWare" style="verticalAlign=top;fontStyle=0;fillColor=#dae8fc;strokeColor=#6c8ebf;" vertex="1" parent="1">
          <mxGeometry x="330" y="340" width="660" height="90" as="geometry" />
        </mxCell>
        <mxCell id="oeIwhElIJajcfcrf5PPU-87" style="edgeStyle=orthogonalEdgeStyle;rounded=1;orthogonalLoop=1;jettySize=auto;html=1;strokeColor=#2D7600;fillColor=#60a917;exitX=1;exitY=0.5;exitDx=0;exitDy=0;" edge="1" parent="1" source="oeIwhElIJajcfcrf5PPU-86" target="oeIwhElIJajcfcrf5PPU-9">
          <mxGeometry relative="1" as="geometry">
            <mxPoint x="1100" y="380" as="targetPoint" />
            <Array as="points">
              <mxPoint x="1060" y="300" />
              <mxPoint x="1060" y="380" />
            </Array>
          </mxGeometry>
        </mxCell>
        <mxCell id="oeIwhElIJajcfcrf5PPU-86" value="MiddleWare" style="fillColor=#d5e8d4;strokeColor=#82b366;dashed=1;verticalAlign=top;fontStyle=0;" vertex="1" parent="1">
          <mxGeometry x="330" y="260" width="660" height="80" as="geometry" />
        </mxCell>
        <mxCell id="oeIwhElIJajcfcrf5PPU-13" value="VPC" style="points=[[0,0],[0.25,0],[0.5,0],[0.75,0],[1,0],[1,0.25],[1,0.5],[1,0.75],[1,1],[0.75,1],[0.5,1],[0.25,1],[0,1],[0,0.75],[0,0.5],[0,0.25]];outlineConnect=0;html=1;whiteSpace=wrap;fontSize=12;fontStyle=0;shape=mxgraph.aws4.group;grIcon=mxgraph.aws4.group_vpc;strokeColor=#666666;fillColor=#f5f5f5;verticalAlign=top;align=left;spacingLeft=30;fontColor=#333333;strokeWidth=2;" vertex="1" parent="1">
          <mxGeometry x="330" y="440" width="660" height="550" as="geometry" />
        </mxCell>
        <mxCell id="oeIwhElIJajcfcrf5PPU-54" style="edgeStyle=orthogonalEdgeStyle;rounded=1;orthogonalLoop=1;jettySize=auto;html=1;fillColor=#0050ef;strokeColor=#001DBC;" edge="1" parent="1" source="oeIwhElIJajcfcrf5PPU-52" target="oeIwhElIJajcfcrf5PPU-10">
          <mxGeometry relative="1" as="geometry">
            <Array as="points">
              <mxPoint x="1040" y="670" />
              <mxPoint x="1040" y="599" />
            </Array>
          </mxGeometry>
        </mxCell>
        <mxCell id="oeIwhElIJajcfcrf5PPU-52" value="" style="fillColor=#dae8fc;strokeColor=#6c8ebf;dashed=1;verticalAlign=top;fontStyle=0;" vertex="1" parent="1">
          <mxGeometry x="350" y="550" width="520" height="160" as="geometry" />
        </mxCell>
        <mxCell id="oeIwhElIJajcfcrf5PPU-53" style="edgeStyle=orthogonalEdgeStyle;rounded=1;orthogonalLoop=1;jettySize=auto;html=1;exitX=1;exitY=0.5;exitDx=0;exitDy=0;strokeColor=#2D7600;fillColor=#60a917;" edge="1" parent="1" source="oeIwhElIJajcfcrf5PPU-15" target="oeIwhElIJajcfcrf5PPU-9">
          <mxGeometry relative="1" as="geometry">
            <mxPoint x="1050" y="370" as="targetPoint" />
            <Array as="points">
              <mxPoint x="1060" y="510" />
              <mxPoint x="1060" y="380" />
            </Array>
          </mxGeometry>
        </mxCell>
        <mxCell id="oeIwhElIJajcfcrf5PPU-15" value="" style="fillColor=#d5e8d4;strokeColor=#82b366;dashed=1;verticalAlign=top;fontStyle=0;" vertex="1" parent="1">
          <mxGeometry x="350" y="470" width="520" height="80" as="geometry" />
        </mxCell>
        <mxCell id="oeIwhElIJajcfcrf5PPU-4" value="" style="dashed=1;verticalAlign=top;fontStyle=0;" vertex="1" parent="1">
          <mxGeometry x="350" y="710" width="520" height="260" as="geometry" />
        </mxCell>
        <mxCell id="oeIwhElIJajcfcrf5PPU-23" value="NG(EC2)" style="fillColor=#dae8fc;strokeColor=#6c8ebf;dashed=1;verticalAlign=top;fontStyle=0;" vertex="1" parent="1">
          <mxGeometry x="350" y="840" width="260" height="130" as="geometry" />
        </mxCell>
        <mxCell id="oeIwhElIJajcfcrf5PPU-24" value="NG(Fargate)" style="fillColor=#dae8fc;strokeColor=#6c8ebf;dashed=1;verticalAlign=top;fontStyle=0;" vertex="1" parent="1">
          <mxGeometry x="610" y="840" width="260" height="130" as="geometry" />
        </mxCell>
        <mxCell id="oeIwhElIJajcfcrf5PPU-27" value="Fluentd" style="fillColor=#fad9d5;strokeColor=#ae4132;dashed=1;verticalAlign=top;fontStyle=0;" vertex="1" parent="1">
          <mxGeometry x="730" y="750" width="140" height="90" as="geometry" />
        </mxCell>
        <mxCell id="oeIwhElIJajcfcrf5PPU-26" value="Center" style="fillColor=#fad9d5;strokeColor=#ae4132;dashed=1;verticalAlign=top;fontStyle=0;" vertex="1" parent="1">
          <mxGeometry x="350" y="750" width="380" height="90" as="geometry" />
        </mxCell>
        <mxCell id="oeIwhElIJajcfcrf5PPU-72" style="edgeStyle=orthogonalEdgeStyle;rounded=0;orthogonalLoop=1;jettySize=auto;html=1;strokeColor=#2D7600;fillColor=#60a917;" edge="1" parent="1" source="oeIwhElIJajcfcrf5PPU-9" target="oeIwhElIJajcfcrf5PPU-70">
          <mxGeometry relative="1" as="geometry" />
        </mxCell>
        <mxCell id="oeIwhElIJajcfcrf5PPU-9" value="S3" style="outlineConnect=0;fontColor=#232F3E;gradientColor=none;fillColor=#6CAE3E;strokeColor=none;dashed=0;verticalLabelPosition=bottom;verticalAlign=top;align=center;html=1;fontSize=12;fontStyle=0;aspect=fixed;pointerEvents=1;shape=mxgraph.aws4.bucket;" vertex="1" parent="1">
          <mxGeometry x="1105.1799999999998" y="356" width="40" height="41.6" as="geometry" />
        </mxCell>
        <mxCell id="oeIwhElIJajcfcrf5PPU-73" style="edgeStyle=orthogonalEdgeStyle;rounded=0;orthogonalLoop=1;jettySize=auto;html=1;entryX=0;entryY=0.5;entryDx=0;entryDy=0;entryPerimeter=0;strokeColor=#001DBC;fillColor=#0050ef;" edge="1" parent="1" source="oeIwhElIJajcfcrf5PPU-10" target="oeIwhElIJajcfcrf5PPU-69">
          <mxGeometry relative="1" as="geometry" />
        </mxCell>
        <mxCell id="oeIwhElIJajcfcrf5PPU-10" value="Cloudwatch log" style="outlineConnect=0;fontColor=#232F3E;gradientColor=none;fillColor=#FF4F8B;strokeColor=none;dashed=0;verticalLabelPosition=bottom;verticalAlign=top;align=center;html=1;fontSize=12;fontStyle=0;aspect=fixed;pointerEvents=1;shape=mxgraph.aws4.logs;" vertex="1" parent="1">
          <mxGeometry x="1100" y="583" width="53.8" height="40" as="geometry" />
        </mxCell>
        <mxCell id="oeIwhElIJajcfcrf5PPU-74" style="edgeStyle=orthogonalEdgeStyle;rounded=0;orthogonalLoop=1;jettySize=auto;html=1;entryX=0;entryY=0.5;entryDx=0;entryDy=0;strokeColor=#FF3399;" edge="1" parent="1" source="oeIwhElIJajcfcrf5PPU-97" target="oeIwhElIJajcfcrf5PPU-68">
          <mxGeometry relative="1" as="geometry">
            <mxPoint x="1133.33" y="850" as="sourcePoint" />
            <Array as="points">
              <mxPoint x="1160" y="850" />
              <mxPoint x="1160" y="850" />
            </Array>
          </mxGeometry>
        </mxCell>
        <mxCell id="oeIwhElIJajcfcrf5PPU-14" value="RDS" style="points=[[0,0,0],[0.25,0,0],[0.5,0,0],[0.75,0,0],[1,0,0],[0,1,0],[0.25,1,0],[0.5,1,0],[0.75,1,0],[1,1,0],[0,0.25,0],[0,0.5,0],[0,0.75,0],[1,0.25,0],[1,0.5,0],[1,0.75,0]];outlineConnect=0;fontColor=#232F3E;gradientColor=#4D72F3;gradientDirection=north;fillColor=#3334B9;strokeColor=#ffffff;dashed=0;verticalLabelPosition=bottom;verticalAlign=top;align=center;html=1;fontSize=12;fontStyle=0;aspect=fixed;shape=mxgraph.aws4.resourceIcon;resIcon=mxgraph.aws4.rds;" vertex="1" parent="1">
          <mxGeometry x="435.43000000000006" y="569.28" width="38.57" height="38.57" as="geometry" />
        </mxCell>
        <mxCell id="oeIwhElIJajcfcrf5PPU-17" value="MQ" style="points=[[0,0,0],[0.25,0,0],[0.5,0,0],[0.75,0,0],[1,0,0],[0,1,0],[0.25,1,0],[0.5,1,0],[0.75,1,0],[1,1,0],[0,0.25,0],[0,0.5,0],[0,0.75,0],[1,0.25,0],[1,0.5,0],[1,0.75,0]];outlineConnect=0;fontColor=#232F3E;gradientColor=#FF4F8B;gradientDirection=north;fillColor=#BC1356;strokeColor=#ffffff;dashed=0;verticalLabelPosition=bottom;verticalAlign=top;align=center;html=1;fontSize=12;fontStyle=0;shape=mxgraph.aws4.resourceIcon;resIcon=mxgraph.aws4.mq;aspect=fixed;" vertex="1" parent="1">
          <mxGeometry x="594" y="570.85" width="40" height="40" as="geometry" />
        </mxCell>
        <mxCell id="oeIwhElIJajcfcrf5PPU-18" value="StepFunction" style="points=[[0,0,0],[0.25,0,0],[0.5,0,0],[0.75,0,0],[1,0,0],[0,1,0],[0.25,1,0],[0.5,1,0],[0.75,1,0],[1,1,0],[0,0.25,0],[0,0.5,0],[0,0.75,0],[1,0.25,0],[1,0.5,0],[1,0.75,0]];outlineConnect=0;fontColor=#232F3E;gradientColor=#FF4F8B;gradientDirection=north;fillColor=#BC1356;strokeColor=#ffffff;dashed=0;verticalLabelPosition=bottom;verticalAlign=top;align=center;html=1;fontSize=12;fontStyle=0;aspect=fixed;shape=mxgraph.aws4.resourceIcon;resIcon=mxgraph.aws4.step_functions;" vertex="1" parent="1">
          <mxGeometry x="594" y="641.85" width="40" height="40" as="geometry" />
        </mxCell>
        <mxCell id="oeIwhElIJajcfcrf5PPU-20" value="CloudFront" style="points=[[0,0,0],[0.25,0,0],[0.5,0,0],[0.75,0,0],[1,0,0],[0,1,0],[0.25,1,0],[0.5,1,0],[0.75,1,0],[1,1,0],[0,0.25,0],[0,0.5,0],[0,0.75,0],[1,0.25,0],[1,0.5,0],[1,0.75,0]];outlineConnect=0;fontColor=#232F3E;gradientColor=#945DF2;gradientDirection=north;fillColor=#5A30B5;strokeColor=#ffffff;dashed=0;verticalLabelPosition=bottom;verticalAlign=top;align=center;html=1;fontSize=12;fontStyle=0;aspect=fixed;shape=mxgraph.aws4.resourceIcon;resIcon=mxgraph.aws4.cloudfront;" vertex="1" parent="1">
          <mxGeometry x="437.42999999999995" y="281" width="38" height="38" as="geometry" />
        </mxCell>
        <mxCell id="oeIwhElIJajcfcrf5PPU-21" value="ALB" style="points=[[0,0,0],[0.25,0,0],[0.5,0,0],[0.75,0,0],[1,0,0],[0,1,0],[0.25,1,0],[0.5,1,0],[0.75,1,0],[1,1,0],[0,0.25,0],[0,0.5,0],[0,0.75,0],[1,0.25,0],[1,0.5,0],[1,0.75,0]];outlineConnect=0;fontColor=#232F3E;gradientColor=#945DF2;gradientDirection=north;fillColor=#5A30B5;strokeColor=#ffffff;dashed=0;verticalLabelPosition=bottom;verticalAlign=top;align=center;html=1;fontSize=12;fontStyle=0;aspect=fixed;shape=mxgraph.aws4.resourceIcon;resIcon=mxgraph.aws4.elastic_load_balancing;" vertex="1" parent="1">
          <mxGeometry x="594" y="490" width="40" height="40" as="geometry" />
        </mxCell>
        <mxCell id="oeIwhElIJajcfcrf5PPU-5" value="" style="outlineConnect=0;fontColor=#232F3E;gradientColor=none;strokeColor=#ffffff;fillColor=#232F3E;dashed=0;verticalLabelPosition=middle;verticalAlign=bottom;align=center;html=1;whiteSpace=wrap;fontSize=10;fontStyle=1;spacing=3;shape=mxgraph.aws4.productIcon;prIcon=mxgraph.aws4.eks;" vertex="1" parent="1">
          <mxGeometry x="320" y="701.85" width="35.14285714285714" height="32.30769230769231" as="geometry" />
        </mxCell>
        <mxCell id="oeIwhElIJajcfcrf5PPU-35" style="edgeStyle=orthogonalEdgeStyle;rounded=1;orthogonalLoop=1;jettySize=auto;html=1;entryX=0.5;entryY=1;entryDx=0;entryDy=0;entryPerimeter=0;fillColor=#fad9d5;strokeColor=#ae4132;" edge="1" parent="1" source="oeIwhElIJajcfcrf5PPU-7" target="oeIwhElIJajcfcrf5PPU-25">
          <mxGeometry relative="1" as="geometry">
            <mxPoint x="800" y="830" as="targetPoint" />
            <Array as="points">
              <mxPoint x="780" y="899" />
              <mxPoint x="780" y="930" />
              <mxPoint x="800" y="930" />
            </Array>
          </mxGeometry>
        </mxCell>
        <mxCell id="oeIwhElIJajcfcrf5PPU-63" style="edgeStyle=orthogonalEdgeStyle;rounded=1;orthogonalLoop=1;jettySize=auto;html=1;strokeColor=#001DBC;fillColor=#0050ef;" edge="1" parent="1" source="oeIwhElIJajcfcrf5PPU-7" target="oeIwhElIJajcfcrf5PPU-10">
          <mxGeometry relative="1" as="geometry">
            <Array as="points">
              <mxPoint x="747" y="960" />
              <mxPoint x="1040" y="960" />
              <mxPoint x="1040" y="599" />
            </Array>
          </mxGeometry>
        </mxCell>
        <mxCell id="oeIwhElIJajcfcrf5PPU-7" value="" style="points=[[0,0,0],[0.25,0,0],[0.5,0,0],[0.75,0,0],[1,0,0],[0,1,0],[0.25,1,0],[0.5,1,0],[0.75,1,0],[1,1,0],[0,0.25,0],[0,0.5,0],[0,0.75,0],[1,0.25,0],[1,0.5,0],[1,0.75,0]];outlineConnect=0;fontColor=#232F3E;gradientColor=#F78E04;gradientDirection=north;fillColor=#D05C17;strokeColor=#ffffff;dashed=0;verticalLabelPosition=bottom;verticalAlign=top;align=center;html=1;fontSize=12;fontStyle=0;aspect=fixed;shape=mxgraph.aws4.resourceIcon;resIcon=mxgraph.aws4.fargate;" vertex="1" parent="1">
          <mxGeometry x="727.56" y="880" width="37.9" height="37.9" as="geometry" />
        </mxCell>
        <mxCell id="oeIwhElIJajcfcrf5PPU-34" style="edgeStyle=orthogonalEdgeStyle;rounded=1;orthogonalLoop=1;jettySize=auto;html=1;entryX=0.5;entryY=1;entryDx=0;entryDy=0;entryPerimeter=0;fillColor=#fad9d5;strokeColor=#ae4132;" edge="1" parent="1" source="oeIwhElIJajcfcrf5PPU-8" target="oeIwhElIJajcfcrf5PPU-25">
          <mxGeometry relative="1" as="geometry">
            <Array as="points">
              <mxPoint x="560" y="900" />
              <mxPoint x="560" y="930" />
              <mxPoint x="800" y="930" />
            </Array>
          </mxGeometry>
        </mxCell>
        <mxCell id="oeIwhElIJajcfcrf5PPU-64" style="edgeStyle=orthogonalEdgeStyle;rounded=1;orthogonalLoop=1;jettySize=auto;html=1;strokeColor=#001DBC;fillColor=#0050ef;" edge="1" parent="1" source="oeIwhElIJajcfcrf5PPU-8" target="oeIwhElIJajcfcrf5PPU-10">
          <mxGeometry relative="1" as="geometry">
            <mxPoint x="1120" y="670" as="targetPoint" />
            <Array as="points">
              <mxPoint x="520" y="960" />
              <mxPoint x="1040" y="960" />
              <mxPoint x="1040" y="600" />
            </Array>
          </mxGeometry>
        </mxCell>
        <mxCell id="oeIwhElIJajcfcrf5PPU-8" value="" style="points=[[0,0,0],[0.25,0,0],[0.5,0,0],[0.75,0,0],[1,0,0],[0,1,0],[0.25,1,0],[0.5,1,0],[0.75,1,0],[1,1,0],[0,0.25,0],[0,0.5,0],[0,0.75,0],[1,0.25,0],[1,0.5,0],[1,0.75,0]];outlineConnect=0;fontColor=#232F3E;gradientColor=#F78E04;gradientDirection=north;fillColor=#D05C17;strokeColor=#ffffff;dashed=0;verticalLabelPosition=bottom;verticalAlign=top;align=center;html=1;fontSize=12;fontStyle=0;aspect=fixed;shape=mxgraph.aws4.resourceIcon;resIcon=mxgraph.aws4.ec2;" vertex="1" parent="1">
          <mxGeometry x="500.00000000000006" y="880" width="39.14" height="39.14" as="geometry" />
        </mxCell>
        <mxCell id="oeIwhElIJajcfcrf5PPU-33" style="edgeStyle=orthogonalEdgeStyle;rounded=1;orthogonalLoop=1;jettySize=auto;html=1;entryX=0;entryY=0.5;entryDx=0;entryDy=0;entryPerimeter=0;fillColor=#fad9d5;strokeColor=#ae4132;" edge="1" parent="1" source="oeIwhElIJajcfcrf5PPU-22" target="oeIwhElIJajcfcrf5PPU-8">
          <mxGeometry relative="1" as="geometry">
            <Array as="points">
              <mxPoint x="455" y="900" />
            </Array>
          </mxGeometry>
        </mxCell>
        <mxCell id="oeIwhElIJajcfcrf5PPU-22" value="" style="html=1;dashed=0;whitespace=wrap;fillColor=#2875E2;strokeColor=#ffffff;points=[[0.005,0.63,0],[0.1,0.2,0],[0.9,0.2,0],[0.5,0,0],[0.995,0.63,0],[0.72,0.99,0],[0.5,1,0],[0.28,0.99,0]];shape=mxgraph.kubernetes.icon;prIcon=pod" vertex="1" parent="1">
          <mxGeometry x="430.43" y="776" width="50" height="48" as="geometry" />
        </mxCell>
        <mxCell id="oeIwhElIJajcfcrf5PPU-37" style="edgeStyle=orthogonalEdgeStyle;rounded=0;orthogonalLoop=1;jettySize=auto;html=1;entryX=0;entryY=0.5;entryDx=0;entryDy=0;entryPerimeter=0;fillColor=#d80073;strokeColor=#FF3399;" edge="1" parent="1" source="oeIwhElIJajcfcrf5PPU-25" target="oeIwhElIJajcfcrf5PPU-48">
          <mxGeometry relative="1" as="geometry">
            <mxPoint x="1020" y="800" as="targetPoint" />
            <Array as="points">
              <mxPoint x="940" y="800" />
            </Array>
          </mxGeometry>
        </mxCell>
        <mxCell id="oeIwhElIJajcfcrf5PPU-25" value="" style="html=1;dashed=0;whitespace=wrap;strokeColor=#ffffff;points=[[0.005,0.63,0],[0.1,0.2,0],[0.9,0.2,0],[0.5,0,0],[0.995,0.63,0],[0.72,0.99,0],[0.5,1,0],[0.28,0.99,0]];shape=mxgraph.kubernetes.icon;prIcon=pod;fillColor=#FFB366;" vertex="1" parent="1">
          <mxGeometry x="775" y="776" width="50" height="48" as="geometry" />
        </mxCell>
        <mxCell id="oeIwhElIJajcfcrf5PPU-31" style="edgeStyle=orthogonalEdgeStyle;rounded=1;orthogonalLoop=1;jettySize=auto;html=1;entryX=0;entryY=0.5;entryDx=0;entryDy=0;entryPerimeter=0;fillColor=#fad9d5;strokeColor=#ae4132;exitX=0.5;exitY=1;exitDx=0;exitDy=0;exitPerimeter=0;" edge="1" parent="1" source="oeIwhElIJajcfcrf5PPU-28" target="oeIwhElIJajcfcrf5PPU-7">
          <mxGeometry relative="1" as="geometry">
            <Array as="points">
              <mxPoint x="614" y="830" />
              <mxPoint x="660" y="830" />
              <mxPoint x="660" y="899" />
            </Array>
          </mxGeometry>
        </mxCell>
        <mxCell id="oeIwhElIJajcfcrf5PPU-28" value="" style="html=1;dashed=0;whitespace=wrap;fillColor=#2875E2;strokeColor=#ffffff;points=[[0.005,0.63,0],[0.1,0.2,0],[0.9,0.2,0],[0.5,0,0],[0.995,0.63,0],[0.72,0.99,0],[0.5,1,0],[0.28,0.99,0]];shape=mxgraph.kubernetes.icon;prIcon=pod" vertex="1" parent="1">
          <mxGeometry x="589" y="772" width="50" height="48" as="geometry" />
        </mxCell>
        <mxCell id="oeIwhElIJajcfcrf5PPU-49" style="edgeStyle=orthogonalEdgeStyle;rounded=1;orthogonalLoop=1;jettySize=auto;html=1;fillColor=#d80073;strokeColor=#FF3399;" edge="1" parent="1" source="oeIwhElIJajcfcrf5PPU-48" target="oeIwhElIJajcfcrf5PPU-97">
          <mxGeometry relative="1" as="geometry">
            <mxPoint x="1100" y="850" as="targetPoint" />
            <Array as="points">
              <mxPoint x="1070" y="800" />
              <mxPoint x="1070" y="850" />
            </Array>
          </mxGeometry>
        </mxCell>
        <mxCell id="oeIwhElIJajcfcrf5PPU-48" value="Kafka" style="points=[[0,0,0],[0.25,0,0],[0.5,0,0],[0.75,0,0],[1,0,0],[0,1,0],[0.25,1,0],[0.5,1,0],[0.75,1,0],[1,1,0],[0,0.25,0],[0,0.5,0],[0,0.75,0],[1,0.25,0],[1,0.5,0],[1,0.75,0]];outlineConnect=0;fontColor=#232F3E;gradientColor=#945DF2;gradientDirection=north;fillColor=#5A30B5;strokeColor=#ffffff;dashed=0;verticalLabelPosition=bottom;verticalAlign=top;align=center;html=1;fontSize=12;fontStyle=0;aspect=fixed;shape=mxgraph.aws4.resourceIcon;resIcon=mxgraph.aws4.managed_streaming_for_kafka;" vertex="1" parent="1">
          <mxGeometry x="900" y="780" width="40" height="40" as="geometry" />
        </mxCell>
        <mxCell id="oeIwhElIJajcfcrf5PPU-61" value="API GateWay" style="points=[[0,0,0],[0.25,0,0],[0.5,0,0],[0.75,0,0],[1,0,0],[0,1,0],[0.25,1,0],[0.5,1,0],[0.75,1,0],[1,1,0],[0,0.25,0],[0,0.5,0],[0,0.75,0],[1,0.25,0],[1,0.5,0],[1,0.75,0]];outlineConnect=0;fontColor=#232F3E;gradientColor=#FF4F8B;gradientDirection=north;fillColor=#BC1356;strokeColor=#ffffff;dashed=0;verticalLabelPosition=bottom;verticalAlign=top;align=center;html=1;fontSize=12;fontStyle=0;aspect=fixed;shape=mxgraph.aws4.resourceIcon;resIcon=mxgraph.aws4.api_gateway;" vertex="1" parent="1">
          <mxGeometry x="594" y="370" width="40" height="40" as="geometry" />
        </mxCell>
        <mxCell id="oeIwhElIJajcfcrf5PPU-65" value="WAF" style="points=[[0,0,0],[0.25,0,0],[0.5,0,0],[0.75,0,0],[1,0,0],[0,1,0],[0.25,1,0],[0.5,1,0],[0.75,1,0],[1,1,0],[0,0.25,0],[0,0.5,0],[0,0.75,0],[1,0.25,0],[1,0.5,0],[1,0.75,0]];outlineConnect=0;fontColor=#232F3E;gradientColor=#F54749;gradientDirection=north;fillColor=#C7131F;strokeColor=#ffffff;dashed=0;verticalLabelPosition=bottom;verticalAlign=top;align=center;html=1;fontSize=12;fontStyle=0;aspect=fixed;shape=mxgraph.aws4.resourceIcon;resIcon=mxgraph.aws4.waf;" vertex="1" parent="1">
          <mxGeometry x="750.0000000000001" y="281" width="38" height="38" as="geometry" />
        </mxCell>
        <mxCell id="oeIwhElIJajcfcrf5PPU-79" style="edgeStyle=orthogonalEdgeStyle;rounded=1;orthogonalLoop=1;jettySize=auto;html=1;strokeColor=#FF3399;" edge="1" parent="1" source="oeIwhElIJajcfcrf5PPU-68" target="oeIwhElIJajcfcrf5PPU-75">
          <mxGeometry relative="1" as="geometry">
            <Array as="points">
              <mxPoint x="1350" y="860" />
              <mxPoint x="1350" y="603" />
            </Array>
          </mxGeometry>
        </mxCell>
        <mxCell id="oeIwhElIJajcfcrf5PPU-68" value="Kibana" style="shape=image;html=1;verticalAlign=top;verticalLabelPosition=bottom;labelBackgroundColor=#ffffff;imageAspect=0;aspect=fixed;image=https://cdn4.iconfinder.com/data/icons/logos-brands-5/24/kibana-128.png;fillColor=#FFB366;" vertex="1" parent="1">
          <mxGeometry x="1194.6399999999999" y="830" width="40" height="40" as="geometry" />
        </mxCell>
        <mxCell id="oeIwhElIJajcfcrf5PPU-78" style="edgeStyle=orthogonalEdgeStyle;orthogonalLoop=1;jettySize=auto;html=1;strokeColor=#001DBC;rounded=1;fillColor=#0050ef;" edge="1" parent="1" source="oeIwhElIJajcfcrf5PPU-69" target="oeIwhElIJajcfcrf5PPU-75">
          <mxGeometry relative="1" as="geometry" />
        </mxCell>
        <mxCell id="oeIwhElIJajcfcrf5PPU-69" value="Cloudwatch&lt;br&gt;Dashbord" style="points=[[0,0,0],[0.25,0,0],[0.5,0,0],[0.75,0,0],[1,0,0],[0,1,0],[0.25,1,0],[0.5,1,0],[0.75,1,0],[1,1,0],[0,0.25,0],[0,0.5,0],[0,0.75,0],[1,0.25,0],[1,0.5,0],[1,0.75,0]];points=[[0,0,0],[0.25,0,0],[0.5,0,0],[0.75,0,0],[1,0,0],[0,1,0],[0.25,1,0],[0.5,1,0],[0.75,1,0],[1,1,0],[0,0.25,0],[0,0.5,0],[0,0.75,0],[1,0.25,0],[1,0.5,0],[1,0.75,0]];outlineConnect=0;fontColor=#232F3E;gradientColor=#F34482;gradientDirection=north;fillColor=#BC1356;strokeColor=#ffffff;dashed=0;verticalLabelPosition=bottom;verticalAlign=top;align=center;html=1;fontSize=12;fontStyle=0;aspect=fixed;shape=mxgraph.aws4.resourceIcon;resIcon=mxgraph.aws4.cloudwatch_2;" vertex="1" parent="1">
          <mxGeometry x="1200" y="583" width="40" height="40" as="geometry" />
        </mxCell>
        <mxCell id="oeIwhElIJajcfcrf5PPU-77" style="edgeStyle=orthogonalEdgeStyle;rounded=1;orthogonalLoop=1;jettySize=auto;html=1;strokeColor=#2D7600;fillColor=#60a917;exitX=1;exitY=0.5;exitDx=0;exitDy=0;exitPerimeter=0;" edge="1" parent="1" source="oeIwhElIJajcfcrf5PPU-70" target="oeIwhElIJajcfcrf5PPU-75">
          <mxGeometry relative="1" as="geometry">
            <mxPoint x="1200" y="370" as="sourcePoint" />
            <Array as="points">
              <mxPoint x="1270" y="378" />
              <mxPoint x="1350" y="378" />
              <mxPoint x="1350" y="599" />
            </Array>
          </mxGeometry>
        </mxCell>
        <mxCell id="oeIwhElIJajcfcrf5PPU-70" value="Athena" style="points=[[0,0,0],[0.25,0,0],[0.5,0,0],[0.75,0,0],[1,0,0],[0,1,0],[0.25,1,0],[0.5,1,0],[0.75,1,0],[1,1,0],[0,0.25,0],[0,0.5,0],[0,0.75,0],[1,0.25,0],[1,0.5,0],[1,0.75,0]];outlineConnect=0;fontColor=#232F3E;gradientColor=#945DF2;gradientDirection=north;fillColor=#5A30B5;strokeColor=#ffffff;dashed=0;verticalLabelPosition=bottom;verticalAlign=top;align=center;html=1;fontSize=12;fontStyle=0;aspect=fixed;shape=mxgraph.aws4.resourceIcon;resIcon=mxgraph.aws4.athena;" vertex="1" parent="1">
          <mxGeometry x="1197.64" y="357.6" width="40" height="40" as="geometry" />
        </mxCell>
        <mxCell id="oeIwhElIJajcfcrf5PPU-75" value="" style="outlineConnect=0;fontColor=#232F3E;gradientColor=none;fillColor=#232F3E;strokeColor=none;dashed=0;verticalLabelPosition=bottom;verticalAlign=top;align=center;html=1;fontSize=12;fontStyle=0;aspect=fixed;pointerEvents=1;shape=mxgraph.aws4.user;" vertex="1" parent="1">
          <mxGeometry x="1410" y="572" width="62" height="62" as="geometry" />
        </mxCell>
        <mxCell id="oeIwhElIJajcfcrf5PPU-93" value="Lambda" style="points=[[0,0,0],[0.25,0,0],[0.5,0,0],[0.75,0,0],[1,0,0],[0,1,0],[0.25,1,0],[0.5,1,0],[0.75,1,0],[1,1,0],[0,0.25,0],[0,0.5,0],[0,0.75,0],[1,0.25,0],[1,0.5,0],[1,0.75,0]];outlineConnect=0;fontColor=#232F3E;gradientColor=#F78E04;gradientDirection=north;fillColor=#D05C17;strokeColor=#ffffff;dashed=0;verticalLabelPosition=bottom;verticalAlign=top;align=center;html=1;fontSize=12;fontStyle=0;aspect=fixed;shape=mxgraph.aws4.resourceIcon;resIcon=mxgraph.aws4.lambda;" vertex="1" parent="1">
          <mxGeometry x="750" y="567.85" width="40" height="40" as="geometry" />
        </mxCell>
        <mxCell id="oeIwhElIJajcfcrf5PPU-94" value="ElasticSearch" style="points=[[0,0,0],[0.25,0,0],[0.5,0,0],[0.75,0,0],[1,0,0],[0,1,0],[0.25,1,0],[0.5,1,0],[0.75,1,0],[1,1,0],[0,0.25,0],[0,0.5,0],[0,0.75,0],[1,0.25,0],[1,0.5,0],[1,0.75,0]];outlineConnect=0;fontColor=#232F3E;gradientColor=#945DF2;gradientDirection=north;fillColor=#5A30B5;strokeColor=#ffffff;dashed=0;verticalLabelPosition=bottom;verticalAlign=top;align=center;html=1;fontSize=12;fontStyle=0;aspect=fixed;shape=mxgraph.aws4.resourceIcon;resIcon=mxgraph.aws4.elasticsearch_service;" vertex="1" parent="1">
          <mxGeometry x="750" y="641.85" width="40" height="40" as="geometry" />
        </mxCell>
        <mxCell id="oeIwhElIJajcfcrf5PPU-96" value="ElastiCache" style="points=[[0,0,0],[0.25,0,0],[0.5,0,0],[0.75,0,0],[1,0,0],[0,1,0],[0.25,1,0],[0.5,1,0],[0.75,1,0],[1,1,0],[0,0.25,0],[0,0.5,0],[0,0.75,0],[1,0.25,0],[1,0.5,0],[1,0.75,0]];outlineConnect=0;fontColor=#232F3E;gradientColor=#4D72F3;gradientDirection=north;fillColor=#3334B9;strokeColor=#ffffff;dashed=0;verticalLabelPosition=bottom;verticalAlign=top;align=center;html=1;fontSize=12;fontStyle=0;aspect=fixed;shape=mxgraph.aws4.resourceIcon;resIcon=mxgraph.aws4.elasticache;" vertex="1" parent="1">
          <mxGeometry x="435.43" y="641.85" width="40" height="40" as="geometry" />
        </mxCell>
        <mxCell id="oeIwhElIJajcfcrf5PPU-97" value="ElasticSearch" style="points=[[0,0,0],[0.25,0,0],[0.5,0,0],[0.75,0,0],[1,0,0],[0,1,0],[0.25,1,0],[0.5,1,0],[0.75,1,0],[1,1,0],[0,0.25,0],[0,0.5,0],[0,0.75,0],[1,0.25,0],[1,0.5,0],[1,0.75,0]];outlineConnect=0;fontColor=#232F3E;gradientColor=#945DF2;gradientDirection=north;fillColor=#5A30B5;strokeColor=#ffffff;dashed=0;verticalLabelPosition=bottom;verticalAlign=top;align=center;html=1;fontSize=12;fontStyle=0;aspect=fixed;shape=mxgraph.aws4.resourceIcon;resIcon=mxgraph.aws4.elasticsearch_service;" vertex="1" parent="1">
          <mxGeometry x="1100" y="827" width="40" height="40" as="geometry" />
        </mxCell>
        <mxCell id="oeIwhElIJajcfcrf5PPU-101" style="edgeStyle=orthogonalEdgeStyle;rounded=0;orthogonalLoop=1;jettySize=auto;html=1;entryX=0;entryY=0.5;entryDx=0;entryDy=0;entryPerimeter=0;strokeColor=#82b366;fillColor=#d5e8d4;" edge="1" parent="1">
          <mxGeometry relative="1" as="geometry">
            <mxPoint x="270" y="1090.1" as="sourcePoint" />
            <mxPoint x="324.60000000000036" y="1090" as="targetPoint" />
            <Array as="points">
              <mxPoint x="294.6" y="1090" />
              <mxPoint x="294.6" y="1090" />
            </Array>
          </mxGeometry>
        </mxCell>
        <mxCell id="oeIwhElIJajcfcrf5PPU-102" style="edgeStyle=orthogonalEdgeStyle;rounded=0;orthogonalLoop=1;jettySize=auto;html=1;entryX=0;entryY=0.5;entryDx=0;entryDy=0;entryPerimeter=0;fillColor=#d80073;strokeColor=#FF3399;" edge="1" parent="1">
          <mxGeometry relative="1" as="geometry">
            <mxPoint x="270" y="1120.1" as="sourcePoint" />
            <mxPoint x="324.60000000000036" y="1120" as="targetPoint" />
            <Array as="points">
              <mxPoint x="294.6" y="1120" />
              <mxPoint x="294.6" y="1120" />
            </Array>
          </mxGeometry>
        </mxCell>
        <mxCell id="oeIwhElIJajcfcrf5PPU-103" style="edgeStyle=orthogonalEdgeStyle;rounded=0;orthogonalLoop=1;jettySize=auto;html=1;entryX=0;entryY=0.5;entryDx=0;entryDy=0;entryPerimeter=0;strokeColor=#001DBC;fillColor=#0050ef;" edge="1" parent="1">
          <mxGeometry relative="1" as="geometry">
            <mxPoint x="270" y="1150.1" as="sourcePoint" />
            <mxPoint x="324.60000000000036" y="1150" as="targetPoint" />
            <Array as="points">
              <mxPoint x="294.6" y="1150" />
              <mxPoint x="294.6" y="1150" />
            </Array>
          </mxGeometry>
        </mxCell>
        <mxCell id="oeIwhElIJajcfcrf5PPU-104" value="S3 storage" style="text;html=1;strokeColor=none;fillColor=none;align=right;verticalAlign=middle;whiteSpace=wrap;rounded=0;" vertex="1" parent="1">
          <mxGeometry x="350" y="1080" width="130" height="20" as="geometry" />
        </mxCell>
        <mxCell id="oeIwhElIJajcfcrf5PPU-105" value="ElasticSearch storage" style="text;html=1;strokeColor=none;fillColor=none;align=right;verticalAlign=middle;whiteSpace=wrap;rounded=0;" vertex="1" parent="1">
          <mxGeometry x="350" y="1110" width="140" height="20" as="geometry" />
        </mxCell>
        <mxCell id="oeIwhElIJajcfcrf5PPU-106" value="Cloudwatch log storage" style="text;html=1;strokeColor=none;fillColor=none;align=right;verticalAlign=middle;whiteSpace=wrap;rounded=0;" vertex="1" parent="1">
          <mxGeometry x="350" y="1140" width="140" height="20" as="geometry" />
        </mxCell>
      </root>
    </mxGraphModel>
  </diagram>
</mxfile>
